<?xml version="1.0" encoding="UTF-8" standalone="no"?>
<!-- Created with Inkscape (http://www.inkscape.org/) -->

<svg
   width="105.83301mm"
   height="105.83333mm"
   viewBox="0 0 105.833 105.83331"
   version="1.1"
   id="svg1"
   inkscape:export-filename="scalegame.svg"
   inkscape:export-xdpi="96"
   inkscape:export-ydpi="96"
   sodipodi:docname="Sc.svg"
   inkscape:version="1.3 (0e150ed6c4, 2023-07-21)"
   xmlns:inkscape="http://www.inkscape.org/namespaces/inkscape"
   xmlns:sodipodi="http://sodipodi.sourceforge.net/DTD/sodipodi-0.dtd"
   xmlns="http://www.w3.org/2000/svg"
   xmlns:svg="http://www.w3.org/2000/svg">
  <sodipodi:namedview
     id="namedview1"
     pagecolor="#505050"
     bordercolor="#eeeeee"
     borderopacity="1"
     inkscape:showpageshadow="0"
     inkscape:pageopacity="0"
     inkscape:pagecheckerboard="0"
     inkscape:deskcolor="#505050"
     inkscape:document-units="mm"
     showgrid="false"
     inkscape:zoom="1.4762501"
     inkscape:cx="372.5656"
     inkscape:cy="217.10413"
     inkscape:window-width="2560"
     inkscape:window-height="1377"
     inkscape:window-x="1072"
     inkscape:window-y="205"
     inkscape:window-maximized="1"
     inkscape:current-layer="layer1" />
  <defs
     id="defs1" />
  <g
     inkscape:label="Layer 1"
     inkscape:groupmode="layer"
     id="layer1">
    <path
       id="circle3"
       style="display:inline;fill:#c5ecc5;stroke:none;stroke-width:0.264583"
       d="M 52.916667 0 A 52.916668 52.916668 0 0 0 0 52.916667 A 52.916668 52.916668 0 0 0 52.916667 105.83333 A 52.916668 52.916668 0 0 0 105.83333 52.916667 A 52.916668 52.916668 0 0 0 52.916667 0 z M 67.182463 12.472624 C 67.503364 12.467531 67.807889 12.528698 68.076982 12.664343 L 68.617 12.936678 C 69.693371 13.479258 69.779439 14.997154 68.81027 16.340088 L 65.006885 21.610567 L 80.021472 29.179097 L 83.824858 23.908618 C 84.794027 22.565687 86.441285 21.921165 87.517655 22.463745 L 88.057157 22.73608 C 89.133529 23.27866 89.219596 24.796556 88.250427 26.13949 L 40.919466 91.724117 C 39.950296 93.067046 38.303555 93.711573 37.227185 93.16899 L 36.687166 92.896655 C 35.610795 92.354071 35.524727 90.836179 36.493896 89.493245 L 40.297282 84.222766 L 25.282694 76.654236 L 21.479309 81.924715 C 20.510139 83.267648 18.862882 83.912169 17.786511 83.369588 L 17.247009 83.097253 C 16.170638 82.554674 16.084569 81.036776 17.053739 79.693844 L 64.384701 14.109216 C 65.111579 13.102016 66.219758 12.4879 67.182463 12.472624 z M 62.012236 25.759668 L 55.8245 34.333822 L 70.839087 41.902869 L 77.026823 33.328198 L 62.012236 25.759668 z M 52.82985 38.483439 L 46.642114 47.057593 L 61.656702 54.626123 L 67.844438 46.051969 L 52.82985 38.483439 z M 43.647465 51.20721 L 37.459729 59.781364 L 52.474316 67.349894 L 58.662052 58.775741 L 43.647465 51.20721 z M 34.46508 63.930465 L 28.277344 72.505135 L 43.291931 80.073665 L 49.479667 71.499512 L 34.46508 63.930465 z " />
  </g>
</svg>
