<?xml version="1.0" encoding="UTF-8" standalone="no"?>
<!-- Created with Inkscape (http://www.inkscape.org/) -->

<svg
   width="105.83301mm"
   height="105.83333mm"
   viewBox="0 0 105.833 105.83331"
   version="1.1"
   id="svg1"
   xmlns="http://www.w3.org/2000/svg"
   xmlns:svg="http://www.w3.org/2000/svg">
  <defs
     id="defs1" />
  <g
     id="layer1">
    <path
       id="circle3"
       style="display:inline;stroke:none;stroke-width:0.264583"
       d="M 52.916667,0 A 52.916668,52.916668 0 0 0 0,52.916667 52.916668,52.916668 0 0 0 52.916667,105.83333 52.916668,52.916668 0 0 0 105.83333,52.916667 52.916668,52.916668 0 0 0 52.916667,0 Z m 14.265796,12.472624 c 0.320901,-0.0051 0.625426,0.05607 0.894519,0.191719 L 68.617,12.936678 c 1.076371,0.54258 1.162439,2.060476 0.19327,3.40341 l -3.803385,5.270479 15.014587,7.56853 3.803386,-5.270479 c 0.969169,-1.342931 2.616427,-1.987453 3.692797,-1.444873 l 0.539502,0.272335 c 1.076372,0.54258 1.162439,2.060476 0.19327,3.40341 L 40.919466,91.724117 c -0.96917,1.342929 -2.615911,1.987456 -3.692281,1.444873 l -0.540019,-0.272335 c -1.076371,-0.542584 -1.162439,-2.060476 -0.19327,-3.40341 l 3.803386,-5.270479 -15.014588,-7.56853 -3.803385,5.270479 c -0.96917,1.342933 -2.616427,1.987454 -3.692798,1.444873 l -0.539502,-0.272335 c -1.076371,-0.542579 -1.16244,-2.060477 -0.19327,-3.403409 L 64.384701,14.109216 c 0.726878,-1.0072 1.835057,-1.621316 2.797762,-1.636592 z m -5.170227,13.287044 -6.187736,8.574154 15.014587,7.569047 6.187736,-8.574671 z m -9.182386,12.723771 -6.187736,8.574154 15.014588,7.56853 6.187736,-8.574154 z m -9.182385,12.723771 -6.187736,8.574154 15.014587,7.56853 6.187736,-8.574153 z m -9.182385,12.723255 -6.187736,8.57467 15.014587,7.56853 6.187736,-8.574153 z" />
  </g>
</svg>
